<svg xmlns="http://www.w3.org/2000/svg" viewBox="0 0 400 200" width="400" height="200">
  <defs>
    <linearGradient id="g1" x1="0%" y1="0%" x2="100%" y2="100%">
      <stop offset="0%" stop-color="#F05572"/>
      <stop offset="100%" stop-color="#F07855"/>
    </linearGradient>
    <linearGradient id="g2" x1="0%" y1="0%" x2="100%" y2="100%">
      <stop offset="0%" stop-color="#DDD0EC"/>
      <stop offset="100%" stop-color="#F2C4CE"/>
    </linearGradient>
    <linearGradient id="g3" x1="0%" y1="0%" x2="100%" y2="100%">
      <stop offset="0%" stop-color="#C8DDD0"/>
      <stop offset="100%" stop-color="#DDD0EC"/>
    </linearGradient>
    <linearGradient id="g4" x1="0%" y1="0%" x2="100%" y2="100%">
      <stop offset="0%" stop-color="#F9D9C8"/>
      <stop offset="100%" stop-color="#F2C4CE"/>
    </linearGradient>
  </defs>

  <!-- Avatar 1 — Valentina -->
  <circle cx="50" cy="100" r="48" fill="url(#g1)" opacity="0.15"/>
  <circle cx="50" cy="85" r="22" fill="#F07855" opacity="0.8"/>
  <ellipse cx="50" cy="130" rx="28" ry="20" fill="#F07855" opacity="0.8"/>
  <!-- hair -->
  <ellipse cx="50" cy="70" rx="22" ry="18" fill="#2A1A22"/>
  <ellipse cx="34" cy="90" rx="8" ry="14" fill="#2A1A22"/>
  <ellipse cx="66" cy="90" rx="8" ry="14" fill="#2A1A22"/>
  <!-- face -->
  <circle cx="44" cy="86" r="2.5" fill="#2A1A22"/>
  <circle cx="56" cy="86" r="2.5" fill="#2A1A22"/>
  <path d="M45 94 Q50 98 55 94" stroke="#F05572" stroke-width="1.5" fill="none" stroke-linecap="round"/>
  <!-- label -->
  <text x="50" y="168" text-anchor="middle" font-family="Georgia,serif" font-size="11" fill="#2A1A22" font-weight="600">Valentina</text>
  <text x="50" y="180" text-anchor="middle" font-family="sans-serif" font-size="8" fill="#9A8090" letter-spacing="1">34 · BOGOTÁ</text>

  <!-- Avatar 2 — Isabela -->
  <circle cx="150" cy="100" r="48" fill="url(#g2)" opacity="0.2"/>
  <circle cx="150" cy="85" r="22" fill="#DDD0EC" opacity="0.9"/>
  <ellipse cx="150" cy="130" rx="28" ry="20" fill="#DDD0EC" opacity="0.9"/>
  <!-- hair -->
  <ellipse cx="150" cy="68" rx="24" ry="16" fill="#8B5E3C"/>
  <ellipse cx="130" cy="82" rx="7" ry="16" fill="#8B5E3C"/>
  <ellipse cx="170" cy="82" rx="7" ry="16" fill="#8B5E3C"/>
  <!-- face -->
  <circle cx="144" cy="86" r="2.5" fill="#2A1A22"/>
  <circle cx="156" cy="86" r="2.5" fill="#2A1A22"/>
  <path d="M145 94 Q150 99 155 94" stroke="#F05572" stroke-width="1.5" fill="none" stroke-linecap="round"/>
  <text x="150" y="168" text-anchor="middle" font-family="Georgia,serif" font-size="11" fill="#2A1A22" font-weight="600">Isabela</text>
  <text x="150" y="180" text-anchor="middle" font-family="sans-serif" font-size="8" fill="#9A8090" letter-spacing="1">31 · MEDELLÍN</text>

  <!-- Avatar 3 — Carlos (hombre) -->
  <circle cx="250" cy="100" r="48" fill="url(#g3)" opacity="0.2"/>
  <circle cx="250" cy="85" r="22" fill="#C8DDD0" opacity="0.9"/>
  <ellipse cx="250" cy="130" rx="30" ry="20" fill="#C8DDD0" opacity="0.9"/>
  <!-- hair corto -->
  <ellipse cx="250" cy="68" rx="22" ry="12" fill="#1A0C14"/>
  <!-- barba -->
  <ellipse cx="250" cy="100" rx="14" ry="8" fill="#1A0C14" opacity="0.15"/>
  <!-- face -->
  <circle cx="243" cy="86" r="2.8" fill="#2A1A22"/>
  <circle cx="257" cy="86" r="2.8" fill="#2A1A22"/>
  <path d="M244 95 Q250 99 256 95" stroke="#2A1A22" stroke-width="1.5" fill="none" stroke-linecap="round"/>
  <text x="250" y="168" text-anchor="middle" font-family="Georgia,serif" font-size="11" fill="#2A1A22" font-weight="600">Carlos</text>
  <text x="250" y="180" text-anchor="middle" font-family="sans-serif" font-size="8" fill="#9A8090" letter-spacing="1">38 · CDMX</text>

  <!-- Avatar 4 — Sofía -->
  <circle cx="350" cy="100" r="48" fill="url(#g4)" opacity="0.2"/>
  <circle cx="350" cy="85" r="22" fill="#F9D9C8" opacity="0.9"/>
  <ellipse cx="350" cy="130" rx="28" ry="20" fill="#F9D9C8" opacity="0.9"/>
  <!-- hair largo -->
  <ellipse cx="350" cy="66" rx="23" ry="15" fill="#2A1A22"/>
  <ellipse cx="330" cy="92" rx="7" ry="20" fill="#2A1A22"/>
  <ellipse cx="370" cy="92" rx="7" ry="20" fill="#2A1A22"/>
  <!-- face -->
  <circle cx="344" cy="86" r="2.5" fill="#2A1A22"/>
  <circle cx="356" cy="86" r="2.5" fill="#2A1A22"/>
  <path d="M345 94 Q350 99 355 94" stroke="#F05572" stroke-width="1.5" fill="none" stroke-linecap="round"/>
  <text x="350" y="168" text-anchor="middle" font-family="Georgia,serif" font-size="11" fill="#2A1A22" font-weight="600">Sofía</text>
  <text x="350" y="180" text-anchor="middle" font-family="sans-serif" font-size="8" fill="#9A8090" letter-spacing="1">29 · BUENOS AIRES</text>
</svg>
